<?xml version="1.0" encoding="utf-8"?>
<!-- Generator: Adobe Illustrator 16.0.4, SVG Export Plug-In . SVG Version: 6.00 Build 0)  -->
<!DOCTYPE svg PUBLIC "-//W3C//DTD SVG 1.1//EN" "http://www.w3.org/Graphics/SVG/1.1/DTD/svg11.dtd">
<svg version="1.1" id="Layer_1" xmlns="http://www.w3.org/2000/svg" xmlns:xlink="http://www.w3.org/1999/xlink" x="0px" y="0px"
	 width="576.842px" height="281.053px" viewBox="0 0 576.842 281.053" enable-background="new 0 0 576.842 281.053"
	 xml:space="preserve">
<g enable-background="new    ">
	<path fill="#D7D38C" d="M52.261,5.871c0,2.945-1.18,5.439-3.54,7.482c-2.36,2.044-5.086,3.064-8.179,3.064H32.73V72.14
		c0,1.702,0.081,3.042,0.244,4.022c0.293,1.636,0.83,3.173,1.611,4.611H21.304c0.879-1.302,1.448-2.783,1.709-4.443
		c0.163-0.977,0.244-2.359,0.244-4.15V16.418h-8.887c-2.604,0-5.469,0.879-8.594,2.637V7.531h37.402c1.79,0,3.564-0.211,5.322-0.635
		C48.664,6.864,49.917,6.522,52.261,5.871z M51.089,7.434c-1.791,0.488-3.198,0.822-4.224,1.001
		c-1.025,0.18-2.254,0.269-3.687,0.269H6.949v8.398c2.474-1.236,4.948-1.855,7.422-1.855h10.059V72.18
		c0,1.855-0.049,3.305-0.146,4.346c-0.098,1.042-0.407,2.067-0.928,3.076h9.277c-0.423-1.014-0.708-2.175-0.854-3.482
		s-0.22-2.632-0.22-3.973v-56.9h8.984c2.604,0,4.939-0.761,7.007-2.283C49.616,11.442,50.796,9.599,51.089,7.434z"/>
	<path fill="#D7D38C" d="M101.773,7.531c-0.814,1.335-1.343,2.694-1.587,4.077c-0.244,1.384-0.366,2.89-0.366,4.517V72.18
		c0,1.693,0.081,3.027,0.244,4.004c0.293,1.628,0.83,3.158,1.611,4.59H88.394c0.879-1.302,1.448-2.783,1.709-4.443
		c0.163-0.977,0.244-2.359,0.244-4.15V32.238c-0.814-0.879-1.668-1.554-2.563-2.026c-0.896-0.472-1.831-0.708-2.808-0.708
		c-1.237,0-3.337,0.57-6.299,1.709c-1.433,0.554-2.718,0.83-3.857,0.83c-0.977,0-2.075-0.105-3.296-0.317
		c-1.221-0.211-2.238-0.496-3.052-0.854V72.18c0,1.693,0.081,3.027,0.244,4.004c0.293,1.628,0.83,3.158,1.611,4.59H57.046
		c0.879-1.302,1.448-2.783,1.709-4.443C58.918,75.354,59,73.971,59,72.18V16.125c0-1.758-0.082-3.125-0.244-4.102
		c-0.293-1.725-0.863-3.223-1.709-4.492h13.379c-0.814,1.303-1.343,2.653-1.587,4.053c-0.244,1.4-0.366,2.914-0.366,4.541v5.664
		c0.813,0.488,1.554,0.839,2.222,1.05c0.667,0.212,1.489,0.317,2.466,0.317c1.497,0,3.011-0.26,4.541-0.781
		c3.646-1.236,6.071-1.855,7.275-1.855c2.213,0,4.004,0.521,5.371,1.562v-5.957c0-1.758-0.082-3.125-0.244-4.102
		c-0.293-1.725-0.863-3.223-1.709-4.492H101.773z M99.722,79.602c-0.423-1.009-0.708-2.164-0.854-3.467
		c-0.146-1.302-0.22-2.62-0.22-3.955V16.125c0-1.92,0.089-3.426,0.269-4.517c0.179-1.09,0.447-2.059,0.806-2.905h-9.277
		c0.358,0.684,0.626,1.587,0.806,2.71c0.179,1.123,0.269,2.694,0.269,4.712v8.105c-2.181-1.692-4.362-2.539-6.543-2.539
		c-1.498,0-3.011,0.261-4.541,0.781c-3.646,1.237-6.071,1.855-7.275,1.855c-1.205,0-2.222-0.122-3.052-0.366
		s-1.766-0.708-2.808-1.392v-6.445c0-1.92,0.089-3.426,0.269-4.517c0.179-1.09,0.447-2.059,0.806-2.905h-9.277
		c0.358,0.684,0.626,1.587,0.806,2.71c0.179,1.123,0.269,2.694,0.269,4.712V72.18c0,1.855-0.049,3.305-0.146,4.346
		c-0.098,1.042-0.407,2.067-0.928,3.076h9.277c-0.423-1.009-0.708-2.164-0.854-3.467c-0.146-1.302-0.22-2.62-0.22-3.955V29.113
		c1.367,0.619,2.661,1.066,3.882,1.343c1.221,0.277,2.368,0.415,3.442,0.415c1.334,0,3.467-0.569,6.396-1.709
		c1.432-0.553,2.75-0.83,3.955-0.83c1.172,0,2.327,0.302,3.467,0.903c1.139,0.603,2.165,1.408,3.076,2.417v40.43
		c0,1.889-0.049,3.361-0.146,4.419c-0.098,1.059-0.407,2.092-0.928,3.101H99.722z"/>
	<path fill="#D7D38C" d="M154.996,80.773H112.32c0.879-1.302,1.448-2.783,1.709-4.443c0.163-0.977,0.244-2.359,0.244-4.15V16.125
		c0-1.758-0.082-3.125-0.244-4.102c-0.293-1.725-0.863-3.223-1.709-4.492h38.574v12.109c-1.595-1.009-2.865-1.676-3.809-2.002
		c-1.237-0.423-2.832-0.635-4.785-0.635h-18.555v3.906h24.414v9.473h-24.414v40.918h22.656c2.148,0,3.987-0.325,5.518-0.977
		c0.358-0.162,1.383-0.716,3.076-1.66V80.773z M153.824,79.602v-8.984c-1.14,0.651-2.238,1.123-3.296,1.416
		c-1.058,0.293-2.434,0.439-4.126,0.439h-23.828V29.211h24.414v-7.129h-24.414v-6.25H142.3c1.758,0,3.166,0.146,4.224,0.439
		c1.058,0.293,2.124,0.766,3.198,1.416V8.703h-35.352c0.358,0.684,0.626,1.587,0.806,2.71c0.179,1.123,0.269,2.694,0.269,4.712
		V72.18c0,1.693-0.065,3.093-0.195,4.199c-0.13,1.107-0.456,2.182-0.977,3.223H153.824z"/>
	<path fill="#D7D38C" d="M227.554,40.93c0,6.152-2.458,12.436-7.373,18.848c-4.623,6.022-10.474,11.027-17.554,15.015
		c-7.08,3.988-13.843,5.981-20.288,5.981c0.879-1.302,1.448-2.783,1.709-4.443c0.163-0.977,0.244-2.359,0.244-4.15V16.125
		c0-1.758-0.082-3.125-0.244-4.102c-0.293-1.725-0.863-3.223-1.709-4.492h28.516c3.581,0,6.38,0.586,8.398,1.758
		c2.604,1.53,3.906,3.972,3.906,7.324c0,1.986-0.554,3.752-1.66,5.298c-1.107,1.547-2.767,2.775-4.98,3.687
		c3.027,0.814,5.583,2.588,7.666,5.322C226.431,33.85,227.554,37.187,227.554,40.93z M226.382,40.93c0-3.613-1.172-6.86-3.516-9.741
		s-5.339-4.712-8.984-5.493c5.403-2.148,8.105-5.176,8.105-9.082c0-2.962-1.172-5.094-3.516-6.396
		c-1.823-1.009-4.362-1.514-7.617-1.514H184.39c0.358,0.684,0.626,1.587,0.806,2.71c0.179,1.123,0.269,2.694,0.269,4.712V72.18
		c0,1.693-0.065,3.101-0.195,4.224c-0.13,1.123-0.456,2.222-0.977,3.296c4.883,0,10.872-1.969,17.969-5.908
		c7.096-3.938,12.825-8.838,17.188-14.697C224.071,52.877,226.382,46.822,226.382,40.93z M213.785,18.469
		c0,1.074-0.399,1.978-1.196,2.71c-0.798,0.732-1.864,1.099-3.198,1.099h-16.797v-7.227h16.797c1.367,0,2.441,0.31,3.223,0.928
		C213.394,16.598,213.785,17.428,213.785,18.469z M218.179,42.102c0,4.004-1.498,8.09-4.492,12.256
		c-2.604,3.646-6.006,6.885-10.205,9.717c-3.972,2.702-7.601,4.297-10.889,4.785V29.016h12.402c3.841,0,6.999,1.27,9.473,3.809
		C216.942,35.363,218.179,38.456,218.179,42.102z M212.613,18.469c0-0.716-0.293-1.27-0.879-1.66s-1.367-0.586-2.344-0.586h-15.625
		v4.883h15.625c0.977,0,1.758-0.244,2.344-0.732S212.613,19.25,212.613,18.469z M217.007,42.102c0-3.32-1.14-6.136-3.418-8.447
		c-2.279-2.311-5.144-3.467-8.594-3.467h-11.23v37.305c2.962-0.65,6.233-2.246,9.814-4.785c3.841-2.734,6.95-5.794,9.326-9.18
		C215.64,49.621,217.007,45.812,217.007,42.102z"/>
	<path fill="#D7D38C" d="M247.964,80.773h-13.281c0.879-1.302,1.448-2.783,1.709-4.443c0.163-0.977,0.244-2.359,0.244-4.15V16.125
		c0-1.758-0.082-3.125-0.244-4.102c-0.293-1.725-0.863-3.223-1.709-4.492h13.281c-0.749,1.367-1.245,2.759-1.489,4.175
		s-0.366,2.89-0.366,4.419V72.18c0,1.693,0.081,3.027,0.244,4.004C246.646,77.812,247.183,79.342,247.964,80.773z M246.011,79.602
		c-0.423-1.009-0.708-2.164-0.854-3.467c-0.146-1.302-0.22-2.62-0.22-3.955V16.125c0-1.92,0.089-3.426,0.269-4.517
		c0.179-1.09,0.447-2.059,0.806-2.905h-9.277c0.358,0.684,0.626,1.587,0.806,2.71c0.179,1.123,0.269,2.694,0.269,4.712V72.18
		c0,1.855-0.049,3.305-0.146,4.346c-0.098,1.042-0.407,2.067-0.928,3.076H246.011z"/>
	<path fill="#D7D38C" d="M304.312,81.945c-13.119-3.58-24.138-10.025-33.057-19.336c-9.473-9.896-14.209-20.735-14.209-32.52
		c0-7.031,2.148-12.598,6.445-16.699c4.102-3.906,9.473-5.859,16.113-5.859h16.797v13.281c-4.98-2.994-9.831-4.492-14.551-4.492
		c-4.232,0-7.731,1.27-10.498,3.809c-3.027,2.768-4.541,6.479-4.541,11.133c0,6.674,2.832,13.737,8.496,21.191
		c5.306,6.999,11.067,11.85,17.285,14.551V35.852c0-1.758-0.082-3.125-0.244-4.102c-0.293-1.725-0.863-3.223-1.709-4.492h13.184
		c-0.781,1.433-1.302,2.979-1.562,4.639c-0.13,0.879-0.195,2.197-0.195,3.955v35.938c0,2.182,0.374,4.525,1.123,7.031
		C303.417,79.635,303.791,80.676,304.312,81.945z M302.457,80.225c-0.488-1.237-0.871-2.654-1.147-4.251
		c-0.277-1.596-0.415-2.979-0.415-4.153V35.856c0-2.052,0.041-3.518,0.122-4.397c0.081-0.879,0.366-1.889,0.854-3.029h-9.18
		c0.358,0.685,0.626,1.589,0.806,2.712c0.179,1.124,0.269,2.696,0.269,4.715v32.935c-4.33-1.694-8.684-4.608-13.062-8.745
		c-4.378-4.137-7.918-8.68-10.62-13.631c-2.962-5.406-4.443-10.454-4.443-15.145c0-4.983,1.627-8.973,4.883-11.97
		c3.027-2.768,6.803-4.152,11.328-4.152c2.246,0,4.533,0.326,6.86,0.977c2.327,0.651,4.5,1.562,6.519,2.734V8.703h-15.625
		c-6.315,0-11.41,1.857-15.283,5.569c-4.069,3.876-6.104,9.152-6.104,15.829c0,7.523,2.116,14.818,6.348,21.886
		c3.971,6.612,9.375,12.441,16.211,17.49C287.45,74.396,294.676,77.979,302.457,80.225z"/>
	<path fill="#D7D38C" d="M375.21,80.773h-13.281c0.879-1.302,1.448-2.783,1.709-4.443c0.163-0.977,0.244-2.359,0.244-4.15V58.508
		h-21.289c0,0.879-0.017,2.279-0.049,4.199c-0.032,1.921-0.049,3.369-0.049,4.346c0,3.19,0.13,5.908,0.391,8.154
		s0.781,4.102,1.562,5.566h-13.672c0.944-1.399,1.636-2.832,2.075-4.297s0.659-2.896,0.659-4.297V61.145
		c0-8.463,1.766-16.87,5.298-25.22c3.531-8.35,8.325-15.112,14.38-20.288c6.478-5.533,12.81-8.301,18.994-8.301
		c0.488,0,0.903,0,1.245,0s0.936,0.065,1.782,0.195c-0.749,1.303-1.245,2.629-1.489,3.979c-0.244,1.352-0.366,2.792-0.366,4.321
		V72.18c0,1.693,0.081,3.027,0.244,4.004C373.892,77.812,374.429,79.342,375.21,80.773z M373.355,79.602
		c-0.456-1.172-0.765-2.368-0.928-3.589s-0.244-2.498-0.244-3.833V15.832c0-1.66,0.065-2.962,0.195-3.906
		c0.13-0.943,0.456-2.051,0.977-3.32l-1.465-0.098c-5.827,0.065-11.833,2.816-18.018,8.252c-5.762,5.078-10.4,11.687-13.916,19.824
		c-3.516,8.139-5.273,16.325-5.273,24.561V72.18c0,2.377-0.618,4.851-1.855,7.422h9.814c-0.521-1.465-0.871-3.149-1.05-5.054
		c-0.18-1.904-0.269-4.207-0.269-6.909c0-1.66,0.024-3.784,0.073-6.372s0.073-3.897,0.073-3.931h23.584V72.18
		c0,1.498-0.065,2.816-0.195,3.955c-0.13,1.14-0.456,2.295-0.977,3.467H373.355z M365.054,50.598h-22.412
		c0.554-3.482,1.745-7.356,3.572-11.621c2.12-5.013,4.665-9.407,7.634-13.184c3.523-4.492,7.259-7.584,11.206-9.277V50.598z
		 M363.882,49.426v-31.25c-3.394,1.823-6.608,4.77-9.643,8.838c-2.61,3.483-4.88,7.455-6.804,11.914
		c-1.633,3.744-2.774,7.243-3.427,10.498H363.882z"/>
	<path fill="#D7D38C" d="M427.847,14.367c0,3.125-1.074,6.25-3.223,9.375l-24.707,36.816V44.436
		c0.716-1.041,1.433-2.082,2.148-3.124c1.724-2.473,3.547-5.124,5.468-7.955c2.799-4.1,5.143-7.565,7.031-10.396
		c0.586-0.879,1.009-1.644,1.27-2.295c0.391-0.911,0.587-1.772,0.587-2.587c0-0.781-0.253-1.285-0.757-1.514
		c-0.505-0.228-1.489-0.342-2.954-0.342h-15.43V72.18c0,1.693,0.081,3.027,0.244,4.004c0.293,1.628,0.83,3.158,1.611,4.59h-13.281
		c0.879-1.302,1.448-2.783,1.709-4.443c0.163-0.977,0.244-2.359,0.244-4.15V16.125c0-1.758-0.081-3.125-0.244-4.102
		c-0.293-1.725-0.862-3.223-1.709-4.492h33.301c2.669,0,4.736,0.521,6.201,1.562C427.017,10.266,427.847,12.023,427.847,14.367z
		 M426.675,14.359c0-1.95-0.684-3.381-2.051-4.291s-3.19-1.365-5.469-1.365h-31.25c0.358,0.684,0.626,1.587,0.806,2.71
		c0.179,1.123,0.269,2.694,0.269,4.712V72.18c0,1.855-0.049,3.305-0.146,4.346c-0.098,1.042-0.407,2.067-0.928,3.076h9.277
		c-0.423-1.009-0.708-2.164-0.854-3.467c-0.146-1.302-0.22-2.62-0.22-3.955V15.051h16.602c1.855,0,3.133,0.221,3.833,0.661
		c0.699,0.44,1.05,1.231,1.05,2.373c0,0.914-0.177,1.819-0.53,2.716c-0.354,0.897-0.851,1.819-1.493,2.766
		c-1.794,2.694-3.979,5.925-6.556,9.689c-1.892,2.793-3.652,5.365-5.283,7.719s-2.512,3.628-2.642,3.822v12.264
		c1.333-2.021,2.665-4.057,3.999-6.11c3.023-4.529,6.047-9.075,9.07-13.638c4.129-6.224,7.282-10.949,9.461-14.176
		C425.657,20.114,426.675,17.188,426.675,14.359z"/>
	<path fill="#D7D38C" d="M476.578,14.367c0,3.125-1.074,6.25-3.223,9.375l-24.707,36.816V44.436
		c0.716-1.041,1.433-2.082,2.148-3.124c1.724-2.473,3.547-5.124,5.468-7.955c2.799-4.1,5.143-7.565,7.031-10.396
		c0.586-0.879,1.009-1.644,1.27-2.295c0.391-0.911,0.587-1.772,0.587-2.587c0-0.781-0.253-1.285-0.757-1.514
		c-0.505-0.228-1.489-0.342-2.954-0.342h-15.43V72.18c0,1.693,0.081,3.027,0.244,4.004c0.293,1.628,0.83,3.158,1.611,4.59h-13.281
		c0.879-1.302,1.448-2.783,1.709-4.443c0.163-0.977,0.244-2.359,0.244-4.15V16.125c0-1.758-0.081-3.125-0.244-4.102
		c-0.293-1.725-0.862-3.223-1.709-4.492h33.301c2.669,0,4.736,0.521,6.201,1.562C475.748,10.266,476.578,12.023,476.578,14.367z
		 M475.406,14.359c0-1.95-0.684-3.381-2.051-4.291s-3.19-1.365-5.469-1.365h-31.25c0.358,0.684,0.626,1.587,0.806,2.71
		c0.179,1.123,0.269,2.694,0.269,4.712V72.18c0,1.855-0.049,3.305-0.146,4.346c-0.098,1.042-0.407,2.067-0.928,3.076h9.277
		c-0.423-1.009-0.708-2.164-0.854-3.467c-0.146-1.302-0.22-2.62-0.22-3.955V15.051h16.602c1.855,0,3.133,0.221,3.833,0.661
		c0.699,0.44,1.05,1.231,1.05,2.373c0,0.914-0.177,1.819-0.53,2.716c-0.354,0.897-0.851,1.819-1.493,2.766
		c-1.794,2.694-3.979,5.925-6.556,9.689c-1.892,2.793-3.652,5.365-5.283,7.719s-2.512,3.628-2.642,3.822v12.264
		c1.333-2.021,2.665-4.057,3.999-6.11c3.023-4.529,6.047-9.075,9.07-13.638c4.129-6.224,7.282-10.949,9.461-14.176
		C474.387,20.114,475.406,17.188,475.406,14.359z"/>
	<path fill="#D7D38C" d="M521.402,80.773h-38.086c0.879-1.302,1.448-2.783,1.709-4.443c0.163-0.977,0.244-2.359,0.244-4.15V16.125
		c0-1.758-0.081-3.125-0.244-4.102c-0.293-1.725-0.862-3.223-1.709-4.492h14.062c-1.758,3.125-2.637,5.99-2.637,8.594v55.176h18.066
		c2.604,0,5.469-0.879,8.594-2.637V80.773z M520.23,79.602v-8.984c-2.474,1.237-4.948,1.855-7.422,1.855H493.57V16.125
		c0-2.474,0.618-4.947,1.855-7.422h-10.059c0.358,0.684,0.626,1.587,0.806,2.71c0.179,1.123,0.269,2.694,0.269,4.712V72.18
		c0,1.855-0.049,3.305-0.146,4.346c-0.098,1.042-0.407,2.067-0.928,3.076H520.23z"/>
	<path fill="#D7D38C" d="M570.914,80.773h-42.676c0.879-1.302,1.448-2.783,1.709-4.443c0.163-0.977,0.244-2.359,0.244-4.15V16.125
		c0-1.758-0.081-3.125-0.244-4.102c-0.293-1.725-0.862-3.223-1.709-4.492h38.574v12.109c-1.595-1.009-2.864-1.676-3.809-2.002
		c-1.237-0.423-2.832-0.635-4.785-0.635h-18.555v3.906h24.414v9.473h-24.414v40.918h22.656c2.148,0,3.987-0.325,5.518-0.977
		c0.358-0.162,1.384-0.716,3.076-1.66V80.773z M569.742,79.602v-8.984c-1.14,0.651-2.238,1.123-3.296,1.416
		c-1.059,0.293-2.434,0.439-4.126,0.439h-23.828V29.211h24.414v-7.129h-24.414v-6.25h19.727c1.758,0,3.165,0.146,4.224,0.439
		c1.058,0.293,2.124,0.766,3.198,1.416V8.703h-35.352c0.358,0.684,0.626,1.587,0.806,2.71c0.179,1.123,0.269,2.694,0.269,4.712
		V72.18c0,1.693-0.065,3.093-0.195,4.199c-0.13,1.107-0.456,2.182-0.977,3.223H569.742z"/>
</g>
<g enable-background="new    ">
	<path fill="#D7D38C" d="M75.465,164.453c0,7.92-6.32,12.801-13.84,12.801c-6.16,0-10-5.2-10.72-7.681c0,0-0.08-0.08,3.2-2.08
		c2.48,4,5.6,4.641,7.6,4.641c4,0,7.2-2.721,7.2-6.561c0-4.561-6.8-7.681-6.8-14.08c0-1.04-14.081,20.16-24.161,23.84
		c0,0-5.12,1.921-7.04,0.881v-1.681c11.84,0,27.521-34.081,40.721-34.16c2.08,0,4.08,0.72,4.08,2.479c0,4.641-7.76,1.601-7.76,6.641
		C67.944,154.453,75.465,157.813,75.465,164.453z"/>
	<path fill="#D7D38C" d="M111.288,161.894c-5.2,8.16-14.56,15.36-24,15.28c-7.6-0.08-10.8-4.561-6.48-13.841l8.24-17.2h-27.2
		l2.72-5.04h26.881l8.48-17.921h6.56l-8.56,17.921h8.16l-2.88,5.04h-7.68l-8.56,17.84c-2.72,5.761-0.56,7.601,1.76,7.681
		c6.72,0,14.96-5.2,19.28-11.761L111.288,161.894z"/>
	<path fill="#D7D38C" d="M151.208,161.813c-5.28,8.16-14.88,15.36-20.72,15.36c-3.68,0-6.24-1.2-6.8-4.32
		c-2.48,2.24-6.96,4.24-9.36,4.24c-7.04,0-8.24-5.12-8.24-9.681c0-6.08,8.16-27.04,22.561-27.04c3.84,0,5.12,2.72,5.84,4.56
		l1.92-3.84h6.48l-11.52,24.4c-2.72,5.76-0.56,6.16,0.56,6.16c2.72,0,11.6-5.28,16-11.84L151.208,161.813z M125.687,163.013
		c4.72-8.24,5.2-12.56,5.2-12.56c0.16-1.681-0.24-4.48-2.96-4.48c-4.561,0-14.801,10.48-14.801,20.4c0,2.561,1.12,4.8,3.041,4.8
		C118.967,171.173,123.207,167.413,125.687,163.013z"/>
	<path fill="#D7D38C" d="M186.327,161.973c-5.28,8.16-14.88,15.44-20.72,15.44c-6.4,0-9.28-3.6-4.24-14.56c0,0,3.44-7.2,7.12-15.681
		c0.32-0.72,0.24-0.8-0.72-0.8c-1.12,0-4.96,0-5.92,0c-0.32,0-0.56,0-0.88,0.08c-3.2,6.64-8,15.44-11.2,19.04
		c0,0-11.28,13.12-19.84,10.721v-1.521c9.04-1.04,22.08-18.4,24.96-27.28c0.48-1.601-0.96-0.641-1.76-1.28
		c-0.96-0.72,1.12-3.84,2.56-6c2.24-3.44,3.52-5.04,4.48-6.4c0.4-0.64,1.04-1.2,2.32-1.2c2,0,0.4,0,2.64,0c0,0,2-0.08,0.8,2.16
		c-1.6,2.8-2.32,4.24-2.32,4.24c-0.8,1.52-0.64,2.24,0,2.24c0,0,0.64,0,7.6,0c6.08,0,4.88,3.68,4.16,5.2l-8.88,19.28
		c-2.64,5.76-0.56,6.24,0.56,6.24c2.4,0,11.6-5.36,16-11.841L186.327,161.973z"/>
	<path fill="#D7D38C" d="M212.006,161.894c-5.2,8.16-14.56,15.36-24,15.28c-7.6-0.08-10.8-4.561-6.48-13.841l8.24-17.2h-27.2
		l2.72-5.04h26.881l8.48-17.921h6.56l-8.56,17.921h8.16l-2.88,5.04h-7.68l-8.56,17.84c-2.72,5.761-0.56,7.601,1.76,7.681
		c6.72,0,14.96-5.2,19.28-11.761L212.006,161.894z"/>
	<path fill="#D7D38C" d="M276.885,164.453c0,7.92-6.32,12.801-13.84,12.801c-6.16,0-10-5.2-10.72-7.681c0,0-0.08-0.08,3.2-2.08
		c2.48,4,5.6,4.641,7.6,4.641c4,0,7.2-2.721,7.2-6.561c0-4.561-6.8-7.681-6.8-14.08c0-1.04-14.081,20.16-24.161,23.84
		c0,0-5.12,1.921-7.04,0.881v-1.681c11.84,0,27.521-34.081,40.721-34.16c2.08,0,4.08,0.72,4.08,2.479c0,4.641-7.76,1.601-7.76,6.641
		C269.364,154.453,276.885,157.813,276.885,164.453z"/>
	<path fill="#D7D38C" d="M330.003,156.533c-4.08,13.44-12.96,20.4-21.36,20.4c-4.88,0-6.08-3.521-6.8-5.521l-20.241,41.121h-6.56
		l32.641-66.642h-23.281l2.72-5.04h26.96c0,0,2.961,0,1.201,2.8l-0.641,1.28c2.96-2.56,6.48-4.56,10.4-4.56
		C330.963,140.373,332.403,148.613,330.003,156.533z M324.803,149.333c0-2.48-1.2-3.761-3.12-3.681
		c-6.8,0.24-14,14.961-15.04,18.081c-0.72,2.16-1.521,7.68,2.8,7.68C314.643,171.413,324.803,159.333,324.803,149.333z"/>
	<path fill="#D7D38C" d="M364.723,161.973c-5.28,8.16-14.881,15.44-20.721,15.44c-6.4,0-9.28-3.6-4.24-14.56
		c0,0,3.44-7.2,7.12-15.681c0.32-0.72,0.24-0.8-0.72-0.8c-1.12,0-4.961,0-5.92,0c-0.32,0-0.561,0-0.881,0.08
		c-3.199,6.64-8,15.44-11.199,19.04c0,0-11.281,13.12-19.841,10.721v-1.521c9.04-1.04,22.08-18.4,24.96-27.28
		c0.48-1.601-0.959-0.641-1.76-1.28c-0.96-0.72,1.12-3.84,2.561-6c2.24-3.44,3.52-5.04,4.48-6.4c0.399-0.64,1.039-1.2,2.319-1.2
		c2,0,0.399,0,2.64,0c0,0,2-0.08,0.801,2.16c-1.601,2.8-2.32,4.24-2.32,4.24c-0.801,1.52-0.641,2.24,0,2.24c0,0,0.641,0,7.6,0
		c6.08,0,4.881,3.68,4.16,5.2l-8.88,19.28c-2.64,5.76-0.56,6.24,0.56,6.24c2.4,0,11.601-5.36,16.001-11.841L364.723,161.973z"/>
	<path fill="#D7D38C" d="M371.602,177.174c-20.561,0-9.041-36.722,7.68-36.722c6.48,0,8.24,3.921,8.24,7.44
		c0,6.24-8.561,13.601-20.48,17.36h0.08c0.16,5.841,3.76,6.801,6.561,6.801c6.56-0.08,14.96-5.681,19.359-12.24l3.201,2
		C391.042,169.974,381.922,177.174,371.602,177.174z M378.242,146.213c-2.72,0-8.4,3.92-10.64,13.68
		c12.959-5.279,12.959-10.88,12.959-10.88C380.561,147.413,380.162,146.213,378.242,146.213z"/>
	<path fill="#D7D38C" d="M436.162,161.813c-5.28,8.16-14.88,15.36-20.72,15.36c-3.681,0-6.24-1.2-6.801-4.32
		c-2.48,2.24-6.961,4.24-9.36,4.24c-7.04,0-8.24-5.12-8.24-9.681c0-6.08,8.16-27.04,22.561-27.04c3.841,0,5.12,2.72,5.841,4.56
		l1.92-3.84h6.479l-11.521,24.4c-2.72,5.76-0.56,6.16,0.561,6.16c2.72,0,11.6-5.28,16-11.84L436.162,161.813z M410.641,163.013
		c4.721-8.24,5.2-12.56,5.2-12.56c0.159-1.681-0.24-4.48-2.96-4.48c-4.561,0-14.801,10.48-14.801,20.4c0,2.561,1.12,4.8,3.041,4.8
		C403.92,171.173,408.161,167.413,410.641,163.013z"/>
	<path fill="#D7D38C" d="M471.92,159.813l3.28,2c-5.28,8.16-14.88,15.36-20.721,15.36c-3.681,0-6.24-1.2-6.8-4.32
		c-2.48,2.24-6.961,4.24-9.36,4.24c-7.04,0-8.24-5.12-8.24-9.681c0-6.08,8.16-27.04,22.561-27.04c3.681,0,5.04,2.56,5.761,4.319
		l8.319-17.12h-8.08l2.72-5.04h14.4l-20.4,42.961c-2.72,5.76-0.56,6.16,0.561,6.16C458.64,171.653,467.52,166.373,471.92,159.813z
		 M449.68,163.013c4.72-8.24,5.2-12.56,5.2-12.56c0.159-1.681-0.24-4.48-2.96-4.48c-4.561,0-14.801,10.48-14.801,20.4
		c0,2.561,1.12,4.8,3.04,4.8C442.959,171.173,447.2,167.413,449.68,163.013z"/>
	<path fill="#D7D38C" d="M495.52,161.813c-5.2,8.16-14.801,15.36-20.641,15.36c-6,0-9.521-3.36-5.2-12.4l11.12-23.681h6.48
		l-11.601,24.4c-2.72,5.76-0.479,6.16,0.64,6.16c2.4,0,11.521-5.28,15.921-11.84L495.52,161.813z M483.28,130.053
		c1.359-2.32,4.08-3.36,6.08-2.48c2,0.96,2.56,3.521,1.199,5.76c-1.279,2.32-4,3.36-6,2.48
		C482.559,134.853,482,132.292,483.28,130.053z"/>
	<path fill="#D7D38C" d="M535.28,161.813c-5.28,8.16-14.881,15.36-20.721,15.36c-6.4,0-9.439-3.601-4.24-14.561
		c3.44-7.12,4.32-9.521,4.48-9.92c3.2-6.081-0.24-6.081-0.24-6.081c-5.92,0-15.359,12.961-16.88,15.041l-7.36,15.12h-6.48h-0.16
		l14.961-30.721h-23.121l2.721-5.04c15.36,0,22.881,0,22.881,0c2.319,0,3.84,0,4.08,0c0,0,2.959,0,1.199,2.8l-3.6,7.44
		c3.359-4.88,8.88-10.801,15.68-10.801c5.841,0,5.681,6.001,3.601,10.4l-6.64,14.641c-2.641,5.76-0.561,6.16,0.56,6.16
		c2.399,0,11.601-5.28,16-11.84L535.28,161.813z"/>
	<path fill="#D7D38C" d="M574.639,161.973c-8.959,14.001-24.32,19.521-27.439,20.48c-0.08,0.08-8.961,20.48-10.081,22.401
		c-3.28,5.76-8.479,8.8-13.2,8.8c-7.68,0-16.32-10.24-9.92-20.561c6.72-10.88,19.92-12.08,27.601-14.641
		c0.08-0.08,2.16-4.16,2.88-5.6c-2.08,2.24-5.6,4.16-7.92,4.16c-6.16,0-6.961-4.88-6.961-9.44c0-6.08,8.16-27.041,22.561-27.041
		c3.841,0,5.121,2.721,5.841,4.561l1.84-3.84h6.56l-16.4,34.801c1.601-0.641,14.32-5.44,21.361-16.081L574.639,161.973z
		 M539.359,184.693c-20.32,4.561-25.28,14.48-19.681,21.121c3.28,3.84,10.641,0.399,13.121-5.36
		C532.799,200.454,533.838,198.214,539.359,184.693z M539.678,171.333c2.801,0,7.041-3.76,9.521-8.16
		c4.72-8.24,5.199-12.56,5.199-12.56c0.16-1.681-0.24-4.48-2.96-4.48c-4.56,0-14.8,10.48-14.8,20.4
		C536.639,169.094,537.758,171.333,539.678,171.333z"/>
</g>
<g enable-background="new    ">
	<path fill="#D7D38C" d="M308.18,257.894c-5.2,8.16-14.561,15.36-24,15.28c-7.6-0.08-10.8-4.561-6.48-13.841l8.24-17.2h-27.201
		l2.72-5.04h26.881l8.48-17.921h6.56l-8.56,17.921h8.16l-2.88,5.04h-7.68l-8.56,17.84c-2.72,5.761-0.56,7.601,1.76,7.681
		c6.72,0,14.96-5.2,19.28-11.761L308.18,257.894z"/>
	<path fill="#D7D38C" d="M347.059,257.813c-5.199,8.16-14.8,15.36-20.641,15.36c-6.479,0-9.52-3.601-4.239-14.561
		c3.36-7.12,4.239-9.521,4.479-9.92c1.36-3.041,2-6.001-0.319-6.001c-5.2,0-12.96,10.081-15.681,13.761l-7.92,16.32h-6.561
		l24.001-49.201h-23.521l2.72-5.12h29.841l-13.041,26.641c3.441-4.24,8.32-8.641,14.081-8.641c5.841,0,5.761,6.16,3.681,10.641
		l-6.721,14.4c-2.641,5.76-0.48,6.16,0.641,6.16c2.399,0,11.52-5.28,15.92-11.84L347.059,257.813z"/>
	<path fill="#D7D38C" d="M353.858,273.174c-20.561,0-9.04-36.722,7.681-36.722c6.479,0,8.24,3.921,8.24,7.44
		c0,6.24-8.561,13.601-20.48,17.36h0.08c0.159,5.841,3.76,6.801,6.56,6.801c6.561-0.08,14.961-5.681,19.361-12.24l3.199,2
		C373.299,265.974,364.178,273.174,353.858,273.174z M360.499,242.213c-2.721,0-8.4,3.92-10.641,13.68
		c12.961-5.279,12.961-10.88,12.961-10.88C362.819,243.413,362.418,242.213,360.499,242.213z"/>
	<path fill="#D7D38C" d="M460.017,257.813c-5.28,8.16-14.88,15.36-20.72,15.36c-6.4,0-9.441-3.601-4.24-14.561
		c3.439-7.12,4.319-9.521,4.479-9.92c3.2-6.081-0.239-6.081-0.239-6.081c-5.921,0-15.361,12.961-16.881,15.041l-7.36,15.12h-6.479
		h-0.16l14.96-30.721h-23.12l2.72-5.04c15.36,0,22.88,0,22.88,0c2.32,0,3.84,0,4.08,0c0,0,2.961,0,1.2,2.8l-3.6,7.44
		c3.36-4.88,8.88-10.801,15.681-10.801c5.84,0,5.68,6.001,3.6,10.4l-6.641,14.641c-2.64,5.76-0.56,6.16,0.561,6.16
		c2.4,0,11.6-5.28,16-11.84L460.017,257.813z"/>
	<path fill="#D7D38C" d="M466.817,273.174c-20.561,0-9.041-36.722,7.68-36.722c6.48,0,8.24,3.921,8.24,7.44
		c0,6.24-8.561,13.601-20.48,17.36h0.08c0.16,5.841,3.76,6.801,6.561,6.801c6.56-0.08,14.96-5.681,19.359-12.24l3.201,2
		C486.256,265.974,477.137,273.174,466.817,273.174z M473.457,242.213c-2.72,0-8.4,3.92-10.64,13.68
		c12.959-5.279,12.959-10.88,12.959-10.88C475.776,243.413,475.376,242.213,473.457,242.213z"/>
	<path fill="#D7D38C" d="M541.136,237.093c-6.32,13.68-17.601,35.921-33.921,35.921c-5.359,0-5.52-5.521-4.08-9.921
		c-3.439,4.641-8.721,9.921-15.04,9.921c-5.841,0-5.841-6.16-3.681-10.561l9.92-20.4h-23.199l2.719-5.04c26.721,0,26.961,0,26.961,0
		s2.961,0,1.2,2.8l-10.479,21.44c-1.36,2.721-1.681,5.601,0.479,5.601c5.841,0,15.601-13.2,16.4-14.881c0,0,0.8-1.6,7.28-14.88
		h6.561l-11.681,23.841c-1.28,2.72-2.16,5.84,0.56,5.92c2.961,0,6.4-2.721,9.28-5.601c0,0,8.001-8.4,14.081-24.16
		C541.216,237.013,541.136,237.093,541.136,237.093z"/>
	<path fill="#D7D38C" d="M564.415,260.453c0,7.92-6.32,12.801-13.84,12.801c-6.16,0-10-5.2-10.721-7.681c0,0-0.08-0.08,3.2-2.08
		c2.479,4,5.601,4.641,7.601,4.641c4,0,7.199-2.721,7.199-6.561c0-4.561-6.799-7.681-6.799-14.08c0-1.04-14.081,20.16-24.161,23.84
		c0,0-5.12,1.921-7.04,0.881v-1.681c11.84,0,27.521-34.081,40.721-34.16c2.08,0,4.08,0.72,4.08,2.479c0,4.641-7.76,1.601-7.76,6.641
		C556.895,250.453,564.415,253.813,564.415,260.453z"/>
</g>
<g>
</g>
<g>
</g>
<g>
</g>
<g>
</g>
<g>
</g>
<g>
</g>
<g>
</g>
<g>
</g>
<g>
</g>
<g>
</g>
<g>
</g>
<g>
</g>
<g>
</g>
<g>
</g>
<g>
</g>
</svg>
